<?xml version="1.0" encoding="utf-8"?>
<!-- Generator: Adobe Illustrator 24.0.1, SVG Export Plug-In . SVG Version: 6.00 Build 0)  -->
<svg version="1.1" id="Layer_1" xmlns="http://www.w3.org/2000/svg" xmlns:xlink="http://www.w3.org/1999/xlink" x="0px" y="0px"
	 viewBox="0 0 500 120" style="enable-background:new 0 0 500 120;" xml:space="preserve">
<style type="text/css">
	.st0{fill:#0F0F0F;}
</style>
<g id="Layer_2_2_">
	<g id="Layer_1-2_1_">
		<path class="st0" d="M128.8,34.5l-0.1,33.5c-0.1,1.6,0.2,3.1,0.7,4.6c0.3,0.9,0.8,1.7,1.6,2.3c0.8,0.5,1.6,0.9,2.5,1.2
			c0.5,0.2,0.8,0.6,0.8,1.2c0,1.2-1,2.8-2.9,4.7s-4.4,2.8-7.5,2.8c-2.6,0-4.7-0.8-6.3-2.3c-1.7-1.6-2.7-3.8-3-6.1l-0.4-3.9
			c-1.7,3.9-4.1,7.2-7.1,9.2c-2.8,1.9-6,3-9.4,3.1c-4,0.1-7.3-1.1-9.7-3.6s-3.6-6.2-3.6-11.1V51c0-5.6-2.5-7-2.5-7
			c-0.8-0.5-1.7-0.9-2.5-1.2c-0.5-0.2-0.9-0.7-0.9-1.3c0-1.3,1-2.9,2.9-4.8c2-1.9,4.7-2.9,7.5-2.8c3.1,0,5.6,0.9,7.5,2.8
			c1.9,1.9,2.8,4.5,2.8,7.8v21.9c0,2.8,0.5,4.9,1.5,6.2c0.9,1.2,2.3,1.9,3.8,1.8c2.4-0.1,4.6-1.8,6.5-4.9c2-3.2,3-7.2,3-11.9V34.5
			C118.8,34,123.8,34,128.8,34.5"/>
		<path class="st0" d="M166.7,41.9h-10.2v20.8c0,4.6,0.6,7.8,1.7,9.7c1.2,1.8,3.2,2.7,6.2,2.7c1,0,1.9-0.1,2.8-0.3
			c0.7-0.2,1.4-0.3,2.1-0.3c0.5-0.1,1,0.3,1,0.8c0,0.1,0,0.1,0,0.2c0,1.9-1.5,4-4.4,6.2c-2.9,2.2-6.4,3.3-10.5,3.3
			c-9.2,0-13.8-5.7-13.8-17v-26h-5.5c-0.5-2.2-0.5-4.4,0-6.5h5.5V23.5c5-0.6,10-0.5,15,0.1v11.7h10.1
			C167.2,37.5,167.2,39.7,166.7,41.9z"/>
		<path class="st0" d="M223,75c0.8,0.5,1.7,0.9,2.5,1.2c0.5,0.2,0.8,0.6,0.9,1.2c0,1.5-1.1,3.2-3.2,4.9c-2,1.7-4.6,2.6-7.3,2.6
			c-2.9,0-5.2-0.9-7-2.6c-1.8-1.8-2.9-4.4-3.1-7.6c-1.4,3-3.5,5.6-6.2,7.5c-2.7,1.8-5.9,2.7-9.1,2.7c-5.7,0-10.3-2.4-13.7-7.1
			c-3.5-4.7-5.2-10.7-5.2-17.9c0-6.9,1.8-12.9,5.4-18c3.6-5.1,8.3-7.6,14.1-7.6c6.7,0,11.8,3.1,14.7,8.8V11.8c4.9-1,10-1,14.9,0
			c0,1.9,0,10.7,0,26.3s0,25.5,0,29.6C220.6,73.9,220.6,73.4,223,75z M203,70.1c1.9-3,2.8-6.5,2.8-10.6c0-4.2-0.9-7.9-2.7-10.9
			c-1.8-3-4.2-4.6-7.2-4.6c-2.8,0-5,1.4-6.8,4.2c-1.8,2.8-2.7,6.4-2.8,10.9c-0.1,4.7,0.8,8.5,2.6,11.3c1.8,2.8,4.1,4.2,6.9,4.2
			C198.7,74.6,201.1,73.1,203,70.1L203,70.1z"/>
		<path class="st0" d="M272.7,40.7c4.7,4.7,7,10.8,7,18.3c0,7.6-2.3,13.8-6.9,18.6s-10.7,7.3-18.3,7.3c-7.3,0-13.3-2.3-18.1-7
			c-4.8-4.6-7.2-10.9-7.2-18.8c0-7.4,2.4-13.5,7.2-18.3c4.8-4.8,10.8-7.2,18.1-7.2C261.9,33.6,268,36,272.7,40.7z M262.4,71.6
			c1.8-3.1,2.7-7.2,2.7-12.3c0-5-0.9-9.1-2.6-12.4c-1.8-3.3-4.4-4.9-7.9-4.9c-3.2,0-5.8,1.6-7.7,4.7c-1.9,3.1-2.9,7.2-2.9,12.2
			c0,5.3,1,9.5,3,12.6c2,3.2,4.6,4.8,7.7,4.8C258,76.3,260.6,74.8,262.4,71.6L262.4,71.6z"/>
		<path class="st0" d="M328.6,40.7c4.7,4.7,7,10.8,7,18.3c0,7.6-2.3,13.8-6.9,18.6c-4.6,4.8-10.7,7.3-18.3,7.3
			c-7.3,0-13.3-2.3-18.1-7c-4.8-4.6-7.2-10.9-7.2-18.8c0-7.4,2.4-13.5,7.2-18.3s10.8-7.2,18.1-7.2C317.9,33.6,323.9,36,328.6,40.7z
			 M318.3,71.6c1.8-3.1,2.7-7.2,2.7-12.3c0-5-0.9-9.1-2.6-12.4c-1.8-3.3-4.4-4.9-7.9-4.9c-3.2,0-5.8,1.6-7.7,4.7
			c-1.9,3.1-2.9,7.2-2.9,12.2c0,5.3,1,9.5,3,12.6c2,3.2,4.6,4.8,7.7,4.8C313.9,76.3,316.5,74.8,318.3,71.6L318.3,71.6z"/>
		<path class="st0" d="M358.8,84.2V64.1c0.1-4.9,0.8-9.1,2.3-12.5c1.5-3.5,3.3-5.2,5.6-5.4c1.1-0.1,2.2,0.4,2.8,1.3
			c0.6,1,1,2.2,0.9,3.4c0,1.2-0.2,2.4-0.5,3.6l-0.5,2.1c0,1.2,1.2,1.7,3.6,1.7c2.9,0,5.5-1.2,7.7-3.7c2.2-2.4,3.5-5.6,3.4-8.9
			c0-3.5-1-6.4-3-8.6c-2-2.2-4.6-3.3-8-3.2c-3.4,0.1-6.6,1.4-8.9,3.8c-2.6,2.5-4.6,6.4-5.7,10.6c0-1.7-0.2-3.5-0.3-4.4
			c-0.3-3.2-1.2-5.7-2.8-7.5c-1.6-1.8-3.8-2.6-6.5-2.6c-2.8-0.1-5.5,0.9-7.5,2.8c-2,1.9-3,3.4-3,4.7c0,0.5,0.4,1,0.9,1.2
			c1.4,0.5,2.6,1.4,3.5,2.5c0.7,1,1.1,3,1.1,5.7v33.3H358.8z"/>
		<path class="st0" d="M405.8,51.9c2.3,1.4,4.8,2.5,7.4,3.2c2.9,0.8,5.8,1.7,8.7,2.7c2.8,0.9,5.3,2.5,7.4,4.5c2,2,3.1,4.8,3,7.6
			c0,4.4-2,7.9-6.1,10.7c-4.1,2.8-9.6,4.2-16.7,4.2c-6.6,0-11.9-1.1-16-3.2s-6.1-4.8-6.1-8.2c-0.1-2,0.7-3.9,2.2-5.2
			c1.6-1.3,3.6-2,5.7-1.9c1.5,0,3,0.3,4.3,0.9c1.5,0.6,2.2,1.1,2.2,1.6l-0.1,0.8c-0.1,0.5-0.1,1-0.1,1.6c0,1.7,0.7,3.3,1.9,4.4
			c1.3,1.2,3.3,1.7,6,1.7c2.5,0,4.5-0.6,5.9-1.8c1.3-1,2.1-2.6,2.1-4.3c0-1.7-1-3.1-3-4.2c-2.3-1.2-4.8-2.1-7.3-2.8
			c-2.9-0.8-5.7-1.7-8.6-2.7c-2.8-1-5.3-2.7-7.3-4.8c-2-2.2-3.1-5.1-3-8.1c0-4.2,2-7.7,6.1-10.5c4-2.9,9-4.3,14.9-4.2
			c6.6,0,11.7,1.1,15.4,3.3c3.7,2.2,5.5,4.8,5.5,8c0,2.2-0.7,4-2.1,5.3c-1.4,1.3-3.3,1.9-5.6,1.9c-1.5,0-2.9-0.3-4.3-0.9
			c-1.4-0.6-2.2-1.2-2.2-1.7c0-0.1,0-0.3,0.1-0.4c0.1-0.3,0.1-0.5,0.1-0.8c0-0.3,0-0.7,0-1c0-1.6-0.5-3.2-1.6-4.4
			c-1.1-1.2-2.8-1.8-5.1-1.8c-1.8-0.1-3.5,0.5-4.9,1.7c-1.2,1-1.8,2.4-1.9,3.9C402.7,48.9,403.8,50.5,405.8,51.9z"/>
		<path class="st0" d="M497.3,87.2c-2-1.1-5.2-1.1-6.4-1.2c-1.8-0.1-3.5-0.1-5.2,0V34.5c-4.9-0.7-9.9-0.7-14.8,0v23.1
			c0,4.8-1,8.8-3,11.9c-2,3.2-4.2,4.8-6.5,4.9c-1.5,0.1-2.9-0.6-3.8-1.8c-1-1.3-1.5-3.3-1.5-6.2V44.7c0-3.3-0.9-5.9-2.8-7.8
			c-1.9-1.9-4.4-2.8-7.5-2.8c-2.8-0.1-5.5,0.9-7.5,2.8c-2,1.9-2.9,3.5-2.9,4.8c0,0.6,0.3,1.1,0.9,1.3c2.8,0.1,4.2,3.5,4.2,3.5
			c0.6,1.5,0.9,3.1,0.8,4.7v18.8c0,4.9,1.2,8.6,3.6,11.1s5.6,3.8,9.7,3.7c3.3-0.1,6.6-1.1,9.4-2.9c2.9-1.9,5.5-5,7.1-8.8v15.6
			c-0.4,0.1-0.9,0.2-1.4,0.4c-7.2,2-13.1,5-17.8,8.9c-3.8,3.2-6.5,6.8-6.2,11.5c0.6,6.7,9.8,11.6,19.2,10.4
			c5.5-0.7,9.1-2.9,11.8-5.7c4.3-4.4,6.2-9.6,7.4-15c0.4-1.6,0.7-3.3,1-5.1c2.9,0.4,5.7,1,8.6,1.8c2.5,0.6,5.9,1,6.2-3.7
			C500.2,90,499.1,88,497.3,87.2z M456.6,109c-1.5-4.3,3.6-8.1,8.1-10.6c1.6-0.9,3.3-1.7,5-2.4c0.6-0.3,1-0.4,1-0.4
			C469.2,115.6,458.8,115.2,456.6,109L456.6,109z"/>
		<path class="st0" d="M72.6,38.6C65.5,24,50.5,16.9,37.9,16.9c-7.1,0-14,1.8-20.2,5.2C5.2,29.1-1.3,41.6,0.2,46.7
			c0,0,1.4,4.5,7.5,4.4c2.9-0.1,4-2,4.2-3.7c0.7-8.3,7.4-17.9,16.8-22.1c5.1-2.3,10.9-2.3,17.2,0.6c5.2,2.4,9.3,6.6,11.7,11.8
			c2.1,4.1,3.2,9.1,3.2,15.1c0,6.5-1.3,11.8-3.8,15.9c-2.5,4-6.3,6-11.1,6c-4.4,0-7.8-2.1-10.6-6.2s-4.2-8.9-4.2-15.7
			c0-6.5,1.3-12.3,4-16.3c1.2-1.9,2.8-3.4,4.7-4.6c0.9-0.4,1.2-1.5,0.9-2.4c-0.3-0.7-1-1.1-1.7-1.1c-15.4,0-23,13.2-23,24.4
			c0,25,17.7,32.2,29.8,32.2c17,0,29.7-15.1,29.7-32.3C75.7,47.8,74.6,43,72.6,38.6z"/>
	</g>
</g>
</svg>
